<svg width="872" height="105" viewBox="0 0 872 105" fill="none" xmlns="http://www.w3.org/2000/svg">
<path d="M224.618 49V16.36H235.514C239.098 16.36 242.234 17.096 244.922 18.568C247.61 20.04 248.954 22.44 248.954 25.768V26.008C248.922 27.16 248.666 28.216 248.186 29.176C247.738 30.104 247.146 30.936 246.41 31.672C247.69 32.568 248.73 33.672 249.53 34.984C250.362 36.264 250.778 37.688 250.778 39.256C250.778 43 249.354 45.56 246.506 46.936C243.658 48.312 240.474 49 236.954 49H224.618ZM235.226 23.224H233.354V28.744H235.322C236.666 28.744 237.77 28.536 238.634 28.12C239.498 27.704 239.93 27.064 239.93 26.2C239.93 25.208 239.514 24.472 238.682 23.992C237.85 23.48 236.698 23.224 235.226 23.224ZM237.05 35.608H233.354V42.136H237.146C238.49 42.136 239.594 41.88 240.458 41.368C241.322 40.856 241.754 40.088 241.754 39.064C241.754 37.976 241.338 37.128 240.506 36.52C239.674 35.912 238.522 35.608 237.05 35.608ZM272.595 47.032C271.603 47.576 270.323 48.184 268.755 48.856C267.219 49.528 265.475 49.864 263.523 49.864C260.227 49.864 257.907 48.952 256.563 47.128C255.251 45.272 254.595 42.952 254.595 40.168V25.768H263.331V39.976C263.331 40.872 263.555 41.56 264.003 42.04C264.483 42.52 265.123 42.76 265.923 42.76C266.435 42.76 267.075 42.616 267.843 42.328C268.611 42.04 269.347 41.736 270.051 41.416V25.768H278.787V49H274.419L272.595 47.032ZM284.56 49V25.768H288.928L291.04 28.12C292 27.48 293.136 26.92 294.448 26.44C295.76 25.96 297.072 25.72 298.384 25.72L300.16 32.728C299.008 32.728 297.824 32.888 296.608 33.208C295.392 33.528 294.288 34.072 293.296 34.84V49H284.56ZM318.329 41.752V33.496C317.881 33.08 317.305 32.728 316.601 32.44C315.929 32.152 315.305 32.008 314.729 32.008C313.417 32.008 312.473 32.6 311.897 33.784C311.353 34.936 311.081 36.088 311.081 37.24C311.081 38.616 311.449 39.832 312.185 40.888C312.953 41.912 314.041 42.424 315.449 42.424C315.801 42.424 316.265 42.36 316.841 42.232C317.417 42.104 317.913 41.944 318.329 41.752ZM327.065 25.768V49.24C327.065 52.6 325.945 55.144 323.705 56.872C321.497 58.632 318.345 59.512 314.249 59.512C313.257 59.512 311.769 59.304 309.785 58.888C307.801 58.504 306.057 57.816 304.553 56.824L307.193 50.68C308.761 51.448 310.057 51.928 311.081 52.12C312.137 52.344 313.145 52.456 314.105 52.456C315.097 52.456 316.041 52.264 316.937 51.88C317.865 51.496 318.329 50.936 318.329 50.2V48.52C317.657 48.808 316.905 49.048 316.073 49.24C315.241 49.432 314.297 49.528 313.241 49.528C309.497 49.528 306.697 48.376 304.841 46.072C302.985 43.768 302.057 40.888 302.057 37.432C302.057 33.944 302.969 30.984 304.793 28.552C306.649 26.12 309.625 24.904 313.721 24.904C315.033 24.904 316.345 25.192 317.657 25.768C319.001 26.312 320.185 26.952 321.209 27.688L322.697 25.768H327.065ZM331.401 37.384C331.401 33.48 332.601 30.424 335.001 28.216C337.433 26.008 340.409 24.904 343.929 24.904C347.641 24.904 350.425 26.104 352.281 28.504C354.137 30.904 355.065 33.736 355.065 37V40.024H340.905C341.289 40.92 341.865 41.56 342.633 41.944C343.433 42.328 344.377 42.52 345.465 42.52C346.489 42.52 347.529 42.424 348.585 42.232C349.673 42.04 350.665 41.72 351.561 41.272L354.009 47.176C352.665 48.168 351.001 48.808 349.017 49.096C347.033 49.384 345.561 49.528 344.601 49.528C340.825 49.528 337.673 48.568 335.145 46.648C332.649 44.696 331.401 41.608 331.401 37.384ZM346.713 34.744C346.681 34.232 346.441 33.64 345.993 32.968C345.545 32.264 344.777 31.912 343.689 31.912C342.889 31.912 342.233 32.168 341.721 32.68C341.241 33.16 340.889 33.848 340.665 34.744H346.713ZM359.372 49V25.768H363.74L365.852 28.12C366.812 27.48 367.948 26.92 369.26 26.44C370.572 25.96 371.884 25.72 373.196 25.72L374.972 32.728C373.82 32.728 372.636 32.888 371.42 33.208C370.204 33.528 369.1 34.072 368.108 34.84V49H359.372Z" fill="#E76C1F"/>
<path d="M399.43 49V36.232H387.526V49H378.79V16.36L387.526 16.072V29.368H399.43V16.36H408.166V49H399.43ZM420.259 41.176C420.259 41.56 420.419 41.88 420.739 42.136C421.059 42.392 421.427 42.52 421.843 42.52C422.355 42.52 422.867 42.408 423.379 42.184C423.891 41.96 424.403 41.64 424.915 41.224V39.496H422.227C421.651 39.496 421.171 39.656 420.787 39.976C420.435 40.264 420.259 40.664 420.259 41.176ZM413.731 27.112C414.947 26.568 416.483 26.072 418.339 25.624C420.195 25.144 422.083 24.904 424.003 24.904C427.171 24.904 429.571 25.784 431.203 27.544C432.835 29.304 433.651 31.656 433.651 34.6V49H429.763L428.179 47.224C427.475 47.928 426.547 48.488 425.395 48.904C424.243 49.32 423.011 49.528 421.699 49.528C418.755 49.528 416.563 48.792 415.123 47.32C413.683 45.848 412.963 43.912 412.963 41.512C412.963 38.984 413.811 37.144 415.507 35.992C417.203 34.808 419.395 34.216 422.083 34.216H424.867C424.739 33.512 424.403 32.968 423.859 32.584C423.315 32.2 422.643 32.008 421.843 32.008C421.043 32.008 420.099 32.152 419.011 32.44C417.923 32.696 416.931 33.016 416.035 33.4L413.731 27.112ZM456.439 47.032C455.447 47.576 454.167 48.184 452.599 48.856C451.063 49.528 449.319 49.864 447.367 49.864C444.071 49.864 441.751 48.952 440.407 47.128C439.095 45.272 438.439 42.952 438.439 40.168V25.768H447.175V39.976C447.175 40.872 447.399 41.56 447.847 42.04C448.327 42.52 448.967 42.76 449.767 42.76C450.279 42.76 450.919 42.616 451.687 42.328C452.455 42.04 453.191 41.736 453.895 41.416V25.768H462.631V49H458.263L456.439 47.032ZM476.755 32.824C476.755 33.048 476.867 33.24 477.091 33.4C477.347 33.528 477.891 33.736 478.723 34.024C480.643 34.696 482.483 35.624 484.243 36.808C486.003 37.96 486.883 39.608 486.883 41.752C486.883 44.184 486.067 46.088 484.435 47.464C482.835 48.84 480.419 49.528 477.187 49.528C476.227 49.528 474.659 49.256 472.483 48.712C470.339 48.168 468.595 47.368 467.251 46.312L469.699 40.312C470.627 40.792 471.747 41.272 473.059 41.752C474.403 42.2 475.491 42.424 476.323 42.424C476.835 42.424 477.219 42.328 477.475 42.136C477.731 41.944 477.859 41.768 477.859 41.608C477.859 41.384 477.731 41.192 477.475 41.032C477.219 40.84 476.739 40.632 476.035 40.408C474.115 39.736 472.243 38.824 470.419 37.672C468.627 36.488 467.731 34.824 467.731 32.68C467.731 30.248 468.643 28.344 470.467 26.968C472.291 25.592 474.819 24.904 478.051 24.904C479.011 24.904 480.371 25.144 482.131 25.624C483.923 26.072 485.491 26.824 486.835 27.88L484.387 33.88C483.459 33.4 482.483 32.968 481.459 32.584C480.435 32.2 479.507 32.008 478.675 32.008C477.971 32.008 477.475 32.104 477.187 32.296C476.899 32.488 476.755 32.664 476.755 32.824ZM489.651 37.384C489.651 33.48 490.851 30.424 493.251 28.216C495.683 26.008 498.659 24.904 502.179 24.904C505.891 24.904 508.675 26.104 510.531 28.504C512.387 30.904 513.315 33.736 513.315 37V40.024H499.155C499.539 40.92 500.115 41.56 500.883 41.944C501.683 42.328 502.627 42.52 503.715 42.52C504.739 42.52 505.779 42.424 506.835 42.232C507.923 42.04 508.915 41.72 509.811 41.272L512.259 47.176C510.915 48.168 509.251 48.808 507.267 49.096C505.283 49.384 503.811 49.528 502.851 49.528C499.075 49.528 495.923 48.568 493.395 46.648C490.899 44.696 489.651 41.608 489.651 37.384ZM504.963 34.744C504.931 34.232 504.691 33.64 504.243 32.968C503.795 32.264 503.027 31.912 501.939 31.912C501.139 31.912 500.483 32.168 499.971 32.68C499.491 33.16 499.139 33.848 498.915 34.744H504.963Z" fill="#363534"/>
<rect x="541" y="21.5" width="110" height="32" rx="4" fill="#FACAAC"/>
<path d="M551.602 48.8841C551.224 49.114 550.756 48.7763 550.855 48.3452L552.473 41.2874C552.514 41.108 552.454 40.9205 552.315 40.7993L546.883 36.0485C546.551 35.7585 546.73 35.2124 547.168 35.174L554.339 34.5461C554.524 34.5299 554.685 34.4125 554.757 34.2412L557.539 27.6007C557.71 27.1917 558.29 27.1917 558.461 27.6007L561.243 34.2412C561.315 34.4125 561.476 34.5299 561.661 34.5461L568.832 35.174C569.27 35.2124 569.449 35.7585 569.117 36.0485L563.685 40.7993C563.546 40.9205 563.486 41.108 563.527 41.2874L565.145 48.3452C565.244 48.7763 564.776 49.114 564.398 48.8841L558.26 45.149C558.1 45.0518 557.9 45.0518 557.74 45.149L551.602 48.8841Z" fill="#363534"/>
<path d="M588.96 44.32H587.12V46.88H584.5V44.32H578.96L578.62 42.18L585.18 34.08H587.12V42.18H589.22L588.96 44.32ZM581.42 42.18H584.5V38.24L581.42 42.18ZM591.755 42.58C592.169 42.58 592.522 42.7467 592.815 43.08C593.122 43.4133 593.275 43.8467 593.275 44.38C593.275 45.1133 593.022 45.8867 592.515 46.7C592.022 47.5267 591.395 48.1533 590.635 48.58L590.055 47.34C590.402 47.0467 590.689 46.7733 590.915 46.52C591.155 46.2667 591.322 45.9267 591.415 45.5C591.189 45.5 590.949 45.3533 590.695 45.06C590.442 44.7533 590.315 44.42 590.315 44.06C590.315 43.7 590.455 43.3667 590.735 43.06C591.015 42.74 591.355 42.58 591.755 42.58ZM594.906 43.7H597.086V37.16L596.046 37.76L594.826 36L597.946 34.18H599.686V43.7H601.226L601.446 45.5H595.106L594.906 43.7Z" fill="#363534"/>
<path d="M614.06 45.184C613.328 44.224 612.782 43.162 612.422 41.998C612.062 40.834 611.882 39.748 611.882 38.74C611.882 37.732 612.056 36.658 612.404 35.518C612.764 34.366 613.316 33.298 614.06 32.314L615.23 32.728C614.702 33.328 614.246 34.264 613.862 35.536C613.478 36.796 613.286 37.858 613.286 38.722C613.286 39.61 613.478 40.696 613.862 41.98C614.246 43.264 614.696 44.194 615.212 44.77L614.06 45.184ZM619.838 34.078C621.05 34.078 621.956 34.378 622.556 34.978C623.168 35.578 623.474 36.268 623.474 37.048C623.474 37.672 623.282 38.224 622.898 38.704C622.526 39.172 622.082 39.49 621.566 39.658C622.154 39.802 622.652 40.132 623.06 40.648C623.48 41.164 623.69 41.788 623.69 42.52C623.69 43.456 623.318 44.248 622.574 44.896C621.83 45.544 620.828 45.868 619.568 45.868C618.908 45.868 618.26 45.76 617.624 45.544C617 45.34 616.466 45.118 616.022 44.878L616.778 43.906C617.21 44.17 617.636 44.368 618.056 44.5C618.476 44.644 618.998 44.716 619.622 44.716C620.294 44.716 620.9 44.53 621.44 44.158C621.992 43.774 622.268 43.24 622.268 42.556C622.268 41.836 622.004 41.266 621.476 40.846C620.96 40.426 620.114 40.216 618.938 40.216H618.506L618.29 39.154H619.046C619.982 39.154 620.714 38.968 621.242 38.596C621.782 38.212 622.052 37.702 622.052 37.066C622.052 36.586 621.848 36.166 621.44 35.806C621.032 35.434 620.48 35.248 619.784 35.248C619.16 35.248 618.608 35.35 618.128 35.554C617.648 35.746 617.258 35.938 616.958 36.13L616.256 35.194C616.76 34.87 617.3 34.606 617.876 34.402C618.464 34.186 619.118 34.078 619.838 34.078ZM630.99 44.5H626.112L625.95 43.42H627.876V36.022C627.672 36.166 627.462 36.31 627.246 36.454C627.042 36.586 626.838 36.718 626.634 36.85C626.514 36.694 626.4 36.532 626.292 36.364C626.184 36.196 626.076 36.034 625.968 35.878L628.362 34.312H629.316V43.42H630.846C630.87 43.612 630.894 43.798 630.918 43.978C630.954 44.146 630.978 44.32 630.99 44.5ZM632.997 45.31L638.487 35.482H633.015L632.835 34.312H639.765L640.233 34.942L634.347 45.742L632.997 45.31ZM642.182 32.314C642.902 33.274 643.442 34.336 643.802 35.5C644.174 36.652 644.36 37.732 644.36 38.74C644.36 39.748 644.18 40.828 643.82 41.98C643.46 43.132 642.914 44.2 642.182 45.184L641.03 44.77C641.546 44.182 641.996 43.252 642.38 41.98C642.764 40.696 642.956 39.622 642.956 38.758C642.956 37.87 642.764 36.79 642.38 35.518C641.996 34.246 641.546 33.322 641.03 32.746L642.182 32.314Z" fill="#726D6D"/>
<path d="M113.386 82.68H126.586L127.09 85.128H121.498V99H118.354V85.128H113.386V82.68ZM131.963 88.128C132.475 87.728 133.059 87.424 133.715 87.216C134.387 87.008 134.987 86.904 135.515 86.904C137.099 86.904 138.219 87.368 138.875 88.296C139.547 89.224 139.883 90.36 139.883 91.704V99H136.763V91.848C136.763 91.112 136.587 90.552 136.235 90.168C135.883 89.768 135.363 89.568 134.675 89.568C134.227 89.568 133.763 89.688 133.283 89.928C132.803 90.152 132.363 90.416 131.963 90.72V99H128.867V82.32L131.963 82.056V88.128ZM148.762 99.288C146.746 99.288 145.154 98.736 143.986 97.632C142.834 96.528 142.258 95.048 142.258 93.192C142.258 91.336 142.778 89.848 143.818 88.728C144.874 87.608 146.306 87.048 148.114 87.048C149.938 87.048 151.274 87.656 152.122 88.872C152.986 90.072 153.418 91.496 153.418 93.144V94.104H145.57C145.714 94.872 146.066 95.488 146.626 95.952C147.186 96.4 147.922 96.624 148.834 96.624C149.362 96.624 149.834 96.56 150.25 96.432C150.682 96.288 151.178 96.088 151.738 95.832L152.65 98.088C152.106 98.504 151.442 98.808 150.658 99C149.89 99.192 149.258 99.288 148.762 99.288ZM150.466 92.016C150.306 91.232 150.018 90.656 149.602 90.288C149.186 89.904 148.666 89.712 148.042 89.712C147.402 89.712 146.866 89.912 146.434 90.312C146.002 90.696 145.722 91.264 145.594 92.016H150.466ZM164.752 82.056V87.72C165.216 87.464 165.704 87.264 166.216 87.12C166.744 86.976 167.216 86.904 167.632 86.904C169.344 86.904 170.656 87.496 171.568 88.68C172.48 89.864 172.936 91.336 172.936 93.096C172.936 94.856 172.464 96.328 171.52 97.512C170.592 98.696 169.296 99.288 167.632 99.288C167.088 99.288 166.48 99.176 165.808 98.952C165.136 98.728 164.536 98.416 164.008 98.016L163.24 99H161.656V82.32L164.752 82.056ZM166.816 96.624C167.888 96.624 168.64 96.24 169.072 95.472C169.504 94.688 169.72 93.896 169.72 93.096C169.72 92.184 169.528 91.368 169.144 90.648C168.76 89.928 167.984 89.568 166.816 89.568C166.48 89.568 166.128 89.632 165.76 89.76C165.408 89.872 165.072 90.032 164.752 90.24V95.952C165.072 96.144 165.408 96.304 165.76 96.432C166.128 96.56 166.48 96.624 166.816 96.624ZM181.457 99.288C179.441 99.288 177.849 98.736 176.681 97.632C175.529 96.528 174.953 95.048 174.953 93.192C174.953 91.336 175.473 89.848 176.513 88.728C177.569 87.608 179.001 87.048 180.809 87.048C182.633 87.048 183.969 87.656 184.817 88.872C185.681 90.072 186.113 91.496 186.113 93.144V94.104H178.265C178.409 94.872 178.761 95.488 179.321 95.952C179.881 96.4 180.617 96.624 181.529 96.624C182.057 96.624 182.529 96.56 182.945 96.432C183.377 96.288 183.873 96.088 184.433 95.832L185.345 98.088C184.801 98.504 184.137 98.808 183.353 99C182.585 99.192 181.953 99.288 181.457 99.288ZM183.161 92.016C183.001 91.232 182.713 90.656 182.297 90.288C181.881 89.904 181.361 89.712 180.737 89.712C180.097 89.712 179.561 89.912 179.129 90.312C178.697 90.696 178.417 91.264 178.289 92.016H183.161ZM195.351 90.504C194.791 90.248 194.271 90.056 193.791 89.928C193.311 89.784 192.799 89.712 192.255 89.712C191.855 89.712 191.543 89.792 191.319 89.952C191.111 90.096 191.007 90.304 191.007 90.576C191.007 90.768 191.135 90.952 191.391 91.128C191.663 91.304 192.095 91.496 192.687 91.704C193.663 92.056 194.567 92.552 195.399 93.192C196.231 93.816 196.647 94.632 196.647 95.64C196.647 96.792 196.231 97.688 195.399 98.328C194.583 98.968 193.383 99.288 191.799 99.288C191.303 99.288 190.639 99.192 189.807 99C188.991 98.808 188.311 98.504 187.767 98.088L188.703 95.832C189.263 96.088 189.799 96.288 190.311 96.432C190.839 96.56 191.319 96.624 191.751 96.624C192.327 96.624 192.767 96.544 193.071 96.384C193.375 96.224 193.527 96.016 193.527 95.76C193.527 95.44 193.375 95.152 193.071 94.896C192.767 94.64 192.287 94.408 191.631 94.2C190.703 93.896 189.823 93.464 188.991 92.904C188.175 92.328 187.767 91.56 187.767 90.6C187.767 89.496 188.175 88.632 188.991 88.008C189.807 87.368 190.911 87.048 192.303 87.048C192.799 87.048 193.439 87.152 194.223 87.36C195.007 87.568 195.695 87.872 196.287 88.272L195.351 90.504ZM206.071 98.76C205.815 98.968 205.447 99.136 204.967 99.264C204.503 99.408 204.087 99.48 203.719 99.48C202.279 99.48 201.143 99.12 200.311 98.4C199.495 97.664 199.087 96.624 199.087 95.28V89.784H197.527V87.384H199.087V84.624L202.183 84.072V87.384H204.295L205.255 89.784H202.183V94.728C202.183 95.336 202.327 95.84 202.615 96.24C202.903 96.624 203.327 96.816 203.887 96.816C204.095 96.816 204.303 96.792 204.511 96.744C204.719 96.696 204.935 96.616 205.159 96.504L206.071 98.76ZM218.848 99.288C217.008 99.272 215.568 98.712 214.528 97.608C213.504 96.504 212.992 95.016 212.992 93.144C212.992 91.288 213.528 89.808 214.6 88.704C215.688 87.6 217.168 87.048 219.04 87.048C220.976 87.048 222.472 87.624 223.528 88.776C224.6 89.912 225.136 91.408 225.136 93.264C225.136 95.12 224.56 96.584 223.408 97.656C222.256 98.728 220.736 99.272 218.848 99.288ZM221.92 93.264C221.92 92.16 221.672 91.296 221.176 90.672C220.696 90.032 220.008 89.712 219.112 89.712C218.2 89.712 217.488 89.992 216.976 90.552C216.464 91.112 216.208 91.968 216.208 93.12C216.208 94.272 216.424 95.144 216.856 95.736C217.304 96.328 217.984 96.624 218.896 96.624C219.792 96.624 220.52 96.36 221.08 95.832C221.64 95.288 221.92 94.432 221.92 93.264ZM228.085 86.496C228.085 85.152 228.477 84.096 229.261 83.328C230.061 82.544 231.181 82.152 232.621 82.152C232.989 82.152 233.405 82.224 233.869 82.368C234.333 82.512 234.693 82.688 234.949 82.896L234.061 85.152C233.821 85.056 233.589 84.984 233.365 84.936C233.157 84.872 232.957 84.84 232.765 84.84C232.221 84.84 231.821 85.04 231.565 85.44C231.325 85.824 231.205 86.32 231.205 86.928V87.6H233.413L234.397 90.024H231.205V99H228.085V90.024H226.285V87.6H228.085V86.496ZM248.854 82.68C250.438 82.68 251.726 83.032 252.718 83.736C253.71 84.424 254.206 85.592 254.206 87.24C254.206 87.848 254.062 88.4 253.774 88.896C253.502 89.376 253.142 89.792 252.694 90.144C253.43 90.528 254.03 91.048 254.494 91.704C254.974 92.36 255.214 93.192 255.214 94.2C255.214 95.704 254.686 96.88 253.63 97.728C252.59 98.576 251.198 99 249.454 99H242.758V82.68H248.854ZM248.398 85.272H245.854V89.328H248.158C249.022 89.328 249.694 89.168 250.174 88.848C250.67 88.512 250.918 87.992 250.918 87.288C250.918 86.52 250.694 85.992 250.246 85.704C249.798 85.416 249.182 85.272 248.398 85.272ZM249.43 91.848H245.854V96.432H249.214C250.046 96.432 250.71 96.24 251.206 95.856C251.718 95.472 251.974 94.928 251.974 94.224C251.974 93.456 251.742 92.872 251.278 92.472C250.814 92.056 250.198 91.848 249.43 91.848ZM266.143 97.848C265.615 98.344 264.967 98.736 264.199 99.024C263.431 99.328 262.735 99.48 262.111 99.48C260.527 99.48 259.399 99.016 258.727 98.088C258.071 97.144 257.743 96.008 257.743 94.68V87.36H260.887V94.536C260.887 95.272 261.063 95.84 261.415 96.24C261.767 96.624 262.279 96.816 262.951 96.816C263.367 96.816 263.807 96.712 264.271 96.504C264.735 96.296 265.159 96.056 265.543 95.784V87.36H268.663V99H267.031L266.143 97.848ZM278.052 87.36L278.676 89.856C278.148 89.856 277.532 90.008 276.828 90.312C276.14 90.616 275.46 91.064 274.788 91.656V99H271.668V87.36H273.3L274.332 89.064C274.812 88.648 275.396 88.264 276.084 87.912C276.772 87.544 277.428 87.36 278.052 87.36ZM285.909 89.568C284.821 89.568 284.061 89.952 283.629 90.72C283.213 91.488 283.005 92.28 283.005 93.096C283.005 94.008 283.197 94.824 283.581 95.544C283.965 96.264 284.741 96.624 285.909 96.624C286.277 96.624 286.661 96.544 287.061 96.384C287.477 96.208 287.861 96.008 288.213 95.784V90.408C287.861 90.168 287.477 89.968 287.061 89.808C286.661 89.648 286.277 89.568 285.909 89.568ZM291.357 87.36V98.976C291.357 100.384 290.877 101.56 289.917 102.504C288.973 103.464 287.469 103.944 285.405 103.944C284.909 103.944 284.189 103.824 283.245 103.584C282.301 103.36 281.517 103.04 280.893 102.624L281.829 100.416C282.549 100.768 283.165 101.024 283.677 101.184C284.189 101.344 284.741 101.432 285.333 101.448C286.261 101.432 286.973 101.2 287.469 100.752C287.965 100.32 288.213 99.72 288.213 98.952V98.352C287.717 98.64 287.189 98.864 286.629 99.024C286.069 99.2 285.549 99.288 285.069 99.288C283.373 99.288 282.069 98.696 281.157 97.512C280.245 96.328 279.789 94.856 279.789 93.096C279.789 91.336 280.269 89.864 281.229 88.68C282.205 87.496 283.533 86.904 285.213 86.904C285.789 86.904 286.437 87.032 287.157 87.288C287.877 87.528 288.493 87.872 289.005 88.32L289.725 87.36H291.357ZM300.496 99.288C298.48 99.288 296.888 98.736 295.72 97.632C294.568 96.528 293.992 95.048 293.992 93.192C293.992 91.336 294.512 89.848 295.552 88.728C296.608 87.608 298.04 87.048 299.848 87.048C301.672 87.048 303.008 87.656 303.856 88.872C304.72 90.072 305.152 91.496 305.152 93.144V94.104H297.304C297.448 94.872 297.8 95.488 298.36 95.952C298.92 96.4 299.656 96.624 300.568 96.624C301.096 96.624 301.568 96.56 301.984 96.432C302.416 96.288 302.912 96.088 303.472 95.832L304.384 98.088C303.84 98.504 303.176 98.808 302.392 99C301.624 99.192 300.992 99.288 300.496 99.288ZM302.2 92.016C302.04 91.232 301.752 90.656 301.336 90.288C300.92 89.904 300.4 89.712 299.776 89.712C299.136 89.712 298.6 89.912 298.168 90.312C297.736 90.696 297.456 91.264 297.328 92.016H302.2ZM313.935 87.36L314.559 89.856C314.031 89.856 313.415 90.008 312.711 90.312C312.023 90.616 311.343 91.064 310.671 91.656V99H307.551V87.36H309.183L310.215 89.064C310.695 88.648 311.279 88.264 311.967 87.912C312.655 87.544 313.311 87.36 313.935 87.36ZM322.992 90.504C322.432 90.248 321.912 90.056 321.432 89.928C320.952 89.784 320.44 89.712 319.896 89.712C319.496 89.712 319.184 89.792 318.96 89.952C318.752 90.096 318.648 90.304 318.648 90.576C318.648 90.768 318.776 90.952 319.032 91.128C319.304 91.304 319.736 91.496 320.328 91.704C321.304 92.056 322.208 92.552 323.04 93.192C323.872 93.816 324.288 94.632 324.288 95.64C324.288 96.792 323.872 97.688 323.04 98.328C322.224 98.968 321.024 99.288 319.44 99.288C318.944 99.288 318.28 99.192 317.448 99C316.632 98.808 315.952 98.504 315.408 98.088L316.344 95.832C316.904 96.088 317.44 96.288 317.952 96.432C318.48 96.56 318.96 96.624 319.392 96.624C319.968 96.624 320.408 96.544 320.712 96.384C321.016 96.224 321.168 96.016 321.168 95.76C321.168 95.44 321.016 95.152 320.712 94.896C320.408 94.64 319.928 94.408 319.272 94.2C318.344 93.896 317.464 93.464 316.632 92.904C315.816 92.328 315.408 91.56 315.408 90.6C315.408 89.496 315.816 88.632 316.632 88.008C317.448 87.368 318.552 87.048 319.944 87.048C320.44 87.048 321.08 87.152 321.864 87.36C322.648 87.568 323.336 87.872 323.928 88.272L322.992 90.504ZM327.303 95.496C327.799 95.496 328.223 95.696 328.575 96.096C328.943 96.496 329.127 97.016 329.127 97.656C329.127 98.536 328.823 99.464 328.215 100.44C327.623 101.432 326.871 102.184 325.959 102.696L325.263 101.208C325.679 100.856 326.023 100.528 326.295 100.224C326.583 99.92 326.783 99.512 326.895 99C326.623 99 326.335 98.824 326.031 98.472C325.727 98.104 325.575 97.704 325.575 97.272C325.575 96.84 325.743 96.44 326.079 96.072C326.415 95.688 326.823 95.496 327.303 95.496ZM337.188 99V82.68H342.3C344.076 82.68 345.596 83.088 346.86 83.904C348.124 84.704 348.756 86.04 348.756 87.912C348.74 89.768 348.052 91.136 346.692 92.016C345.348 92.88 343.812 93.312 342.084 93.312H340.284V99H337.188ZM342.204 85.272H340.284V90.744H342.252C343.18 90.744 343.932 90.536 344.508 90.12C345.084 89.688 345.404 89.016 345.468 88.104C345.468 87.048 345.18 86.312 344.604 85.896C344.028 85.48 343.228 85.272 342.204 85.272ZM352.798 82.2C353.294 82.2 353.71 82.368 354.046 82.704C354.398 83.04 354.574 83.456 354.574 83.952C354.574 84.448 354.398 84.864 354.046 85.2C353.71 85.536 353.294 85.704 352.798 85.704C352.318 85.704 351.91 85.536 351.574 85.2C351.238 84.864 351.07 84.448 351.07 83.952C351.07 83.456 351.238 83.04 351.574 82.704C351.91 82.368 352.318 82.2 352.798 82.2ZM354.358 87.36V99H351.238V87.36H354.358ZM366.043 89.136L360.427 96.48H366.043L366.283 99H356.683L356.275 97.344L361.819 89.928H357.163L356.563 87.36H365.875L366.043 89.136ZM376.824 89.136L371.208 96.48H376.824L377.064 99H367.464L367.056 97.344L372.6 89.928H367.944L367.344 87.36H376.656L376.824 89.136ZM381.269 95.52C381.269 95.856 381.405 96.16 381.677 96.432C381.949 96.688 382.309 96.816 382.757 96.816C383.189 96.816 383.621 96.72 384.053 96.528C384.501 96.336 384.925 96.048 385.325 95.664V93.888H382.973C382.429 93.888 382.005 94.056 381.701 94.392C381.413 94.728 381.269 95.104 381.269 95.52ZM382.805 99.288C381.381 99.288 380.325 98.944 379.637 98.256C378.949 97.552 378.605 96.64 378.605 95.52C378.605 94.32 379.013 93.4 379.829 92.76C380.645 92.12 381.709 91.8 383.021 91.8H385.301C385.285 91.208 385.109 90.752 384.773 90.432C384.453 90.096 384.005 89.928 383.429 89.928C382.885 89.928 382.293 90.008 381.653 90.168C381.013 90.312 380.477 90.488 380.045 90.696L379.205 88.104C379.653 87.8 380.333 87.552 381.245 87.36C382.173 87.152 382.885 87.048 383.381 87.048C384.773 87.048 385.965 87.456 386.957 88.272C387.949 89.072 388.445 90.096 388.445 91.344V99H386.837L386.069 98.016C385.637 98.352 385.125 98.648 384.533 98.904C383.957 99.16 383.381 99.288 382.805 99.288ZM392.108 95.496C392.604 95.496 393.028 95.696 393.38 96.096C393.748 96.496 393.932 97.016 393.932 97.656C393.932 98.536 393.628 99.464 393.02 100.44C392.428 101.432 391.676 102.184 390.764 102.696L390.068 101.208C390.484 100.856 390.828 100.528 391.1 100.224C391.388 99.92 391.588 99.512 391.7 99C391.428 99 391.14 98.824 390.836 98.472C390.532 98.104 390.38 97.704 390.38 97.272C390.38 96.84 390.548 96.44 390.884 96.072C391.22 95.688 391.628 95.496 392.108 95.496ZM403.793 95.52C403.793 95.856 403.929 96.16 404.201 96.432C404.473 96.688 404.833 96.816 405.281 96.816C405.713 96.816 406.145 96.72 406.577 96.528C407.025 96.336 407.449 96.048 407.849 95.664V93.888H405.497C404.953 93.888 404.529 94.056 404.225 94.392C403.937 94.728 403.793 95.104 403.793 95.52ZM405.329 99.288C403.905 99.288 402.849 98.944 402.161 98.256C401.473 97.552 401.129 96.64 401.129 95.52C401.129 94.32 401.537 93.4 402.353 92.76C403.169 92.12 404.233 91.8 405.545 91.8H407.825C407.809 91.208 407.633 90.752 407.297 90.432C406.977 90.096 406.529 89.928 405.953 89.928C405.409 89.928 404.817 90.008 404.177 90.168C403.537 90.312 403.001 90.488 402.569 90.696L401.729 88.104C402.177 87.8 402.857 87.552 403.769 87.36C404.697 87.152 405.409 87.048 405.905 87.048C407.297 87.048 408.489 87.456 409.481 88.272C410.473 89.072 410.969 90.096 410.969 91.344V99H409.361L408.593 98.016C408.161 98.352 407.649 98.648 407.057 98.904C406.481 99.16 405.905 99.288 405.329 99.288ZM416.408 88.608C416.936 88.08 417.592 87.664 418.376 87.36C419.176 87.056 419.888 86.904 420.512 86.904C422.096 86.904 423.216 87.368 423.872 88.296C424.544 89.224 424.88 90.36 424.88 91.704V99H421.76V91.848C421.76 91.112 421.584 90.552 421.232 90.168C420.88 89.768 420.368 89.568 419.696 89.568C419.248 89.568 418.776 89.688 418.28 89.928C417.8 90.152 417.36 90.416 416.96 90.72V99H413.84V87.36H415.472L416.408 88.608ZM433.401 89.568C432.313 89.568 431.553 89.952 431.121 90.72C430.705 91.488 430.497 92.28 430.497 93.096C430.497 94.008 430.689 94.824 431.073 95.544C431.457 96.264 432.233 96.624 433.401 96.624C433.769 96.624 434.153 96.544 434.553 96.384C434.969 96.208 435.353 96.008 435.705 95.784V90.408C435.353 90.168 434.969 89.968 434.553 89.808C434.153 89.648 433.769 89.568 433.401 89.568ZM438.849 82.056V99H437.217L436.353 97.872C435.825 98.32 435.201 98.672 434.481 98.928C433.777 99.168 433.137 99.288 432.561 99.288C430.865 99.288 429.561 98.696 428.649 97.512C427.737 96.328 427.281 94.856 427.281 93.096C427.281 91.336 427.761 89.864 428.721 88.68C429.697 87.496 431.025 86.904 432.705 86.904C433.137 86.904 433.625 86.984 434.169 87.144C434.713 87.288 435.225 87.496 435.705 87.768V82.32L438.849 82.056ZM454.284 90.072H460.236V98.136C459.612 98.472 458.86 98.76 457.98 99C457.1 99.224 456.156 99.336 455.148 99.336C452.604 99.336 450.692 98.52 449.412 96.888C448.148 95.24 447.516 93.248 447.516 90.912C447.516 88.432 448.236 86.384 449.676 84.768C451.116 83.152 453.068 82.344 455.532 82.344C456.012 82.344 456.692 82.424 457.572 82.584C458.468 82.744 459.276 83.016 459.996 83.4L459.012 85.632C458.308 85.424 457.732 85.264 457.284 85.152C456.852 85.024 456.284 84.96 455.58 84.96C454.14 84.96 452.972 85.456 452.076 86.448C451.196 87.424 450.756 88.904 450.756 90.888C450.756 92.68 451.116 94.104 451.836 95.16C452.572 96.2 453.652 96.72 455.076 96.72C455.604 96.72 456.06 96.696 456.444 96.648C456.828 96.584 457.164 96.52 457.452 96.456V92.472H454.02L454.284 90.072ZM469.77 87.36L470.394 89.856C469.866 89.856 469.25 90.008 468.546 90.312C467.858 90.616 467.178 91.064 466.506 91.656V99H463.386V87.36H465.018L466.05 89.064C466.53 88.648 467.114 88.264 467.802 87.912C468.49 87.544 469.146 87.36 469.77 87.36ZM478.012 99.288C475.996 99.288 474.404 98.736 473.236 97.632C472.084 96.528 471.508 95.048 471.508 93.192C471.508 91.336 472.028 89.848 473.068 88.728C474.124 87.608 475.556 87.048 477.364 87.048C479.188 87.048 480.524 87.656 481.372 88.872C482.236 90.072 482.668 91.496 482.668 93.144V94.104H474.82C474.964 94.872 475.316 95.488 475.876 95.952C476.436 96.4 477.172 96.624 478.084 96.624C478.612 96.624 479.084 96.56 479.5 96.432C479.932 96.288 480.428 96.088 480.988 95.832L481.9 98.088C481.356 98.504 480.692 98.808 479.908 99C479.14 99.192 478.508 99.288 478.012 99.288ZM479.716 92.016C479.556 91.232 479.268 90.656 478.852 90.288C478.436 89.904 477.916 89.712 477.292 89.712C476.652 89.712 476.116 89.912 475.684 90.312C475.252 90.696 474.972 91.264 474.844 92.016H479.716ZM491.09 99.288C489.074 99.288 487.482 98.736 486.314 97.632C485.162 96.528 484.586 95.048 484.586 93.192C484.586 91.336 485.106 89.848 486.146 88.728C487.202 87.608 488.634 87.048 490.442 87.048C492.266 87.048 493.602 87.656 494.45 88.872C495.314 90.072 495.746 91.496 495.746 93.144V94.104H487.898C488.042 94.872 488.394 95.488 488.954 95.952C489.514 96.4 490.25 96.624 491.162 96.624C491.69 96.624 492.162 96.56 492.578 96.432C493.01 96.288 493.506 96.088 494.066 95.832L494.978 98.088C494.434 98.504 493.77 98.808 492.986 99C492.218 99.192 491.586 99.288 491.09 99.288ZM492.794 92.016C492.634 91.232 492.346 90.656 491.93 90.288C491.514 89.904 490.994 89.712 490.37 89.712C489.73 89.712 489.194 89.912 488.762 90.312C488.33 90.696 488.05 91.264 487.922 92.016H492.794ZM500.712 88.608C501.24 88.08 501.896 87.664 502.68 87.36C503.48 87.056 504.192 86.904 504.816 86.904C506.4 86.904 507.52 87.368 508.176 88.296C508.848 89.224 509.184 90.36 509.184 91.704V99H506.064V91.848C506.064 91.112 505.888 90.552 505.536 90.168C505.184 89.768 504.672 89.568 504 89.568C503.552 89.568 503.08 89.688 502.584 89.928C502.104 90.152 501.664 90.416 501.264 90.72V99H498.144V87.36H499.776L500.712 88.608ZM518.906 90.504C518.346 90.248 517.826 90.056 517.346 89.928C516.866 89.784 516.354 89.712 515.81 89.712C515.41 89.712 515.098 89.792 514.874 89.952C514.666 90.096 514.562 90.304 514.562 90.576C514.562 90.768 514.69 90.952 514.946 91.128C515.218 91.304 515.65 91.496 516.242 91.704C517.218 92.056 518.122 92.552 518.954 93.192C519.786 93.816 520.202 94.632 520.202 95.64C520.202 96.792 519.786 97.688 518.954 98.328C518.138 98.968 516.938 99.288 515.354 99.288C514.858 99.288 514.194 99.192 513.362 99C512.546 98.808 511.866 98.504 511.322 98.088L512.258 95.832C512.818 96.088 513.354 96.288 513.866 96.432C514.394 96.56 514.874 96.624 515.306 96.624C515.882 96.624 516.322 96.544 516.626 96.384C516.93 96.224 517.082 96.016 517.082 95.76C517.082 95.44 516.93 95.152 516.626 94.896C516.322 94.64 515.842 94.408 515.186 94.2C514.258 93.896 513.378 93.464 512.546 92.904C511.73 92.328 511.322 91.56 511.322 90.6C511.322 89.496 511.73 88.632 512.546 88.008C513.362 87.368 514.466 87.048 515.858 87.048C516.354 87.048 516.994 87.152 517.778 87.36C518.562 87.568 519.25 87.872 519.842 88.272L518.906 90.504ZM523.218 95.496C523.714 95.496 524.138 95.696 524.49 96.096C524.858 96.496 525.042 97.016 525.042 97.656C525.042 98.536 524.738 99.464 524.13 100.44C523.538 101.432 522.786 102.184 521.874 102.696L521.178 101.208C521.594 100.856 521.938 100.528 522.21 100.224C522.498 99.92 522.698 99.512 522.81 99C522.538 99 522.25 98.824 521.946 98.472C521.642 98.104 521.49 97.704 521.49 97.272C521.49 96.84 521.658 96.44 521.994 96.072C522.33 95.688 522.738 95.496 523.218 95.496ZM534.902 95.52C534.902 95.856 535.038 96.16 535.31 96.432C535.582 96.688 535.942 96.816 536.39 96.816C536.822 96.816 537.254 96.72 537.686 96.528C538.134 96.336 538.558 96.048 538.958 95.664V93.888H536.606C536.062 93.888 535.638 94.056 535.334 94.392C535.046 94.728 534.902 95.104 534.902 95.52ZM536.438 99.288C535.014 99.288 533.958 98.944 533.27 98.256C532.582 97.552 532.238 96.64 532.238 95.52C532.238 94.32 532.646 93.4 533.462 92.76C534.278 92.12 535.342 91.8 536.654 91.8H538.934C538.918 91.208 538.742 90.752 538.406 90.432C538.086 90.096 537.638 89.928 537.062 89.928C536.518 89.928 535.926 90.008 535.286 90.168C534.646 90.312 534.11 90.488 533.678 90.696L532.838 88.104C533.286 87.8 533.966 87.552 534.878 87.36C535.806 87.152 536.518 87.048 537.014 87.048C538.406 87.048 539.598 87.456 540.59 88.272C541.582 89.072 542.078 90.096 542.078 91.344V99H540.47L539.702 98.016C539.27 98.352 538.758 98.648 538.166 98.904C537.59 99.16 537.014 99.288 536.438 99.288ZM548.213 82.056V99H545.117V82.32L548.213 82.056ZM554.588 82.056V99H551.492V82.32L554.588 82.056ZM564.931 82.2C565.427 82.2 565.843 82.368 566.179 82.704C566.531 83.04 566.707 83.456 566.707 83.952C566.707 84.448 566.531 84.864 566.179 85.2C565.843 85.536 565.427 85.704 564.931 85.704C564.451 85.704 564.043 85.536 563.707 85.2C563.371 84.864 563.203 84.448 563.203 83.952C563.203 83.456 563.371 83.04 563.707 82.704C564.043 82.368 564.451 82.2 564.931 82.2ZM566.491 87.36V99H563.371V87.36H566.491ZM572.079 88.608C572.607 88.08 573.263 87.664 574.047 87.36C574.847 87.056 575.559 86.904 576.183 86.904C577.767 86.904 578.887 87.368 579.543 88.296C580.215 89.224 580.551 90.36 580.551 91.704V99H577.431V91.848C577.431 91.112 577.255 90.552 576.903 90.168C576.551 89.768 576.039 89.568 575.367 89.568C574.919 89.568 574.447 89.688 573.951 89.928C573.471 90.152 573.031 90.416 572.631 90.72V99H569.511V87.36H571.143L572.079 88.608ZM594.481 99.288C592.641 99.272 591.201 98.712 590.161 97.608C589.137 96.504 588.625 95.016 588.625 93.144C588.625 91.288 589.161 89.808 590.233 88.704C591.321 87.6 592.801 87.048 594.673 87.048C596.609 87.048 598.105 87.624 599.161 88.776C600.233 89.912 600.769 91.408 600.769 93.264C600.769 95.12 600.193 96.584 599.041 97.656C597.889 98.728 596.369 99.272 594.481 99.288ZM597.553 93.264C597.553 92.16 597.305 91.296 596.809 90.672C596.329 90.032 595.641 89.712 594.745 89.712C593.833 89.712 593.121 89.992 592.609 90.552C592.097 91.112 591.841 91.968 591.841 93.12C591.841 94.272 592.057 95.144 592.489 95.736C592.937 96.328 593.617 96.624 594.529 96.624C595.425 96.624 596.153 96.36 596.713 95.832C597.273 95.288 597.553 94.432 597.553 93.264ZM605.829 88.608C606.357 88.08 607.013 87.664 607.797 87.36C608.597 87.056 609.309 86.904 609.933 86.904C611.517 86.904 612.637 87.368 613.293 88.296C613.965 89.224 614.301 90.36 614.301 91.704V99H611.181V91.848C611.181 91.112 611.005 90.552 610.653 90.168C610.301 89.768 609.789 89.568 609.117 89.568C608.669 89.568 608.197 89.688 607.701 89.928C607.221 90.152 606.781 90.416 606.381 90.72V99H603.261V87.36H604.893L605.829 88.608ZM623.207 99.288C621.191 99.288 619.599 98.736 618.431 97.632C617.279 96.528 616.703 95.048 616.703 93.192C616.703 91.336 617.223 89.848 618.263 88.728C619.319 87.608 620.751 87.048 622.559 87.048C624.383 87.048 625.719 87.656 626.567 88.872C627.431 90.072 627.863 91.496 627.863 93.144V94.104H620.015C620.159 94.872 620.511 95.488 621.071 95.952C621.631 96.4 622.367 96.624 623.279 96.624C623.807 96.624 624.279 96.56 624.695 96.432C625.127 96.288 625.623 96.088 626.183 95.832L627.095 98.088C626.551 98.504 625.887 98.808 625.103 99C624.335 99.192 623.703 99.288 623.207 99.288ZM624.911 92.016C624.751 91.232 624.463 90.656 624.047 90.288C623.631 89.904 623.111 89.712 622.487 89.712C621.847 89.712 621.311 89.912 620.879 90.312C620.447 90.696 620.167 91.264 620.039 92.016H624.911ZM641.573 89.568C640.485 89.568 639.725 89.952 639.293 90.72C638.877 91.488 638.669 92.28 638.669 93.096C638.669 94.008 638.861 94.824 639.245 95.544C639.629 96.264 640.405 96.624 641.573 96.624C641.941 96.624 642.325 96.544 642.725 96.384C643.141 96.208 643.525 96.008 643.877 95.784V90.408C643.525 90.168 643.141 89.968 642.725 89.808C642.325 89.648 641.941 89.568 641.573 89.568ZM647.021 87.36V98.976C647.021 100.384 646.541 101.56 645.581 102.504C644.637 103.464 643.133 103.944 641.069 103.944C640.573 103.944 639.853 103.824 638.909 103.584C637.965 103.36 637.181 103.04 636.557 102.624L637.493 100.416C638.213 100.768 638.829 101.024 639.341 101.184C639.853 101.344 640.405 101.432 640.997 101.448C641.925 101.432 642.637 101.2 643.133 100.752C643.629 100.32 643.877 99.72 643.877 98.952V98.352C643.381 98.64 642.853 98.864 642.293 99.024C641.733 99.2 641.213 99.288 640.733 99.288C639.037 99.288 637.733 98.696 636.821 97.512C635.909 96.328 635.453 94.856 635.453 93.096C635.453 91.336 635.933 89.864 636.893 88.68C637.869 87.496 639.197 86.904 640.877 86.904C641.453 86.904 642.101 87.032 642.821 87.288C643.541 87.528 644.157 87.872 644.669 88.32L645.389 87.36H647.021ZM656.52 87.36L657.144 89.856C656.616 89.856 656 90.008 655.296 90.312C654.608 90.616 653.928 91.064 653.256 91.656V99H650.136V87.36H651.768L652.8 89.064C653.28 88.648 653.864 88.264 654.552 87.912C655.24 87.544 655.896 87.36 656.52 87.36ZM664.762 99.288C662.746 99.288 661.154 98.736 659.986 97.632C658.834 96.528 658.258 95.048 658.258 93.192C658.258 91.336 658.778 89.848 659.818 88.728C660.874 87.608 662.306 87.048 664.114 87.048C665.938 87.048 667.274 87.656 668.122 88.872C668.986 90.072 669.418 91.496 669.418 93.144V94.104H661.57C661.714 94.872 662.066 95.488 662.626 95.952C663.186 96.4 663.922 96.624 664.834 96.624C665.362 96.624 665.834 96.56 666.25 96.432C666.682 96.288 667.178 96.088 667.738 95.832L668.65 98.088C668.106 98.504 667.442 98.808 666.658 99C665.89 99.192 665.258 99.288 664.762 99.288ZM666.466 92.016C666.306 91.232 666.018 90.656 665.602 90.288C665.186 89.904 664.666 89.712 664.042 89.712C663.402 89.712 662.866 89.912 662.434 90.312C662.002 90.696 661.722 91.264 661.594 92.016H666.466ZM674.144 95.52C674.144 95.856 674.28 96.16 674.552 96.432C674.824 96.688 675.184 96.816 675.632 96.816C676.064 96.816 676.496 96.72 676.928 96.528C677.376 96.336 677.8 96.048 678.2 95.664V93.888H675.848C675.304 93.888 674.88 94.056 674.576 94.392C674.288 94.728 674.144 95.104 674.144 95.52ZM675.68 99.288C674.256 99.288 673.2 98.944 672.512 98.256C671.824 97.552 671.48 96.64 671.48 95.52C671.48 94.32 671.888 93.4 672.704 92.76C673.52 92.12 674.584 91.8 675.896 91.8H678.176C678.16 91.208 677.984 90.752 677.648 90.432C677.328 90.096 676.88 89.928 676.304 89.928C675.76 89.928 675.168 90.008 674.528 90.168C673.888 90.312 673.352 90.488 672.92 90.696L672.08 88.104C672.528 87.8 673.208 87.552 674.12 87.36C675.048 87.152 675.76 87.048 676.256 87.048C677.648 87.048 678.84 87.456 679.832 88.272C680.824 89.072 681.32 90.096 681.32 91.344V99H679.712L678.944 98.016C678.512 98.352 678 98.648 677.408 98.904C676.832 99.16 676.256 99.288 675.68 99.288ZM691.391 98.76C691.135 98.968 690.767 99.136 690.287 99.264C689.823 99.408 689.407 99.48 689.039 99.48C687.599 99.48 686.463 99.12 685.631 98.4C684.815 97.664 684.407 96.624 684.407 95.28V89.784H682.847V87.384H684.407V84.624L687.503 84.072V87.384H689.615L690.575 89.784H687.503V94.728C687.503 95.336 687.647 95.84 687.935 96.24C688.223 96.624 688.647 96.816 689.207 96.816C689.415 96.816 689.623 96.792 689.831 96.744C690.039 96.696 690.255 96.616 690.479 96.504L691.391 98.76ZM704.121 96.624C705.193 96.624 705.945 96.24 706.377 95.472C706.809 94.688 707.025 93.896 707.025 93.096C707.025 92.184 706.833 91.368 706.449 90.648C706.065 89.928 705.289 89.568 704.121 89.568C703.785 89.568 703.433 89.632 703.065 89.76C702.713 89.872 702.377 90.032 702.057 90.24V95.952C702.377 96.144 702.713 96.304 703.065 96.432C703.433 96.56 703.785 96.624 704.121 96.624ZM698.961 87.36H700.545L701.217 88.224C701.745 87.824 702.361 87.504 703.065 87.264C703.769 87.024 704.393 86.904 704.937 86.904C706.649 86.904 707.961 87.496 708.873 88.68C709.785 89.864 710.241 91.336 710.241 93.096C710.241 94.856 709.769 96.328 708.825 97.512C707.897 98.696 706.601 99.288 704.937 99.288C704.521 99.288 704.049 99.216 703.521 99.072C703.009 98.928 702.521 98.728 702.057 98.472V104.016L698.961 104.256V87.36ZM716.002 82.056V99H712.906V82.32L716.002 82.056ZM721.441 95.52C721.441 95.856 721.577 96.16 721.849 96.432C722.121 96.688 722.481 96.816 722.929 96.816C723.361 96.816 723.793 96.72 724.225 96.528C724.673 96.336 725.097 96.048 725.497 95.664V93.888H723.145C722.601 93.888 722.177 94.056 721.873 94.392C721.585 94.728 721.441 95.104 721.441 95.52ZM722.977 99.288C721.553 99.288 720.497 98.944 719.809 98.256C719.121 97.552 718.777 96.64 718.777 95.52C718.777 94.32 719.185 93.4 720.001 92.76C720.817 92.12 721.881 91.8 723.193 91.8H725.473C725.457 91.208 725.281 90.752 724.945 90.432C724.625 90.096 724.177 89.928 723.601 89.928C723.057 89.928 722.465 90.008 721.825 90.168C721.185 90.312 720.649 90.488 720.217 90.696L719.377 88.104C719.825 87.8 720.505 87.552 721.417 87.36C722.345 87.152 723.057 87.048 723.553 87.048C724.945 87.048 726.137 87.456 727.129 88.272C728.121 89.072 728.617 90.096 728.617 91.344V99H727.009L726.241 98.016C725.809 98.352 725.297 98.648 724.705 98.904C724.129 99.16 723.553 99.288 722.977 99.288ZM737.032 89.712C736.152 89.712 735.464 90.048 734.968 90.72C734.472 91.376 734.224 92.2 734.224 93.192C734.224 94.2 734.472 95.024 734.968 95.664C735.464 96.304 736.152 96.624 737.032 96.624C737.576 96.624 738.064 96.56 738.496 96.432C738.944 96.288 739.448 96.088 740.008 95.832L740.896 98.088C740.352 98.504 739.688 98.808 738.904 99C738.136 99.192 737.504 99.288 737.008 99.288C735.12 99.288 733.648 98.736 732.592 97.632C731.536 96.528 731.008 95.048 731.008 93.192C731.008 91.336 731.536 89.848 732.592 88.728C733.648 87.608 735.12 87.048 737.008 87.048C737.504 87.048 738.128 87.152 738.88 87.36C739.648 87.568 740.32 87.872 740.896 88.272L740.008 90.504C739.448 90.248 738.944 90.056 738.496 89.928C738.064 89.784 737.576 89.712 737.032 89.712ZM749.184 99.288C747.168 99.288 745.576 98.736 744.408 97.632C743.256 96.528 742.68 95.048 742.68 93.192C742.68 91.336 743.2 89.848 744.24 88.728C745.296 87.608 746.728 87.048 748.536 87.048C750.36 87.048 751.696 87.656 752.544 88.872C753.408 90.072 753.84 91.496 753.84 93.144V94.104H745.992C746.136 94.872 746.488 95.488 747.048 95.952C747.608 96.4 748.344 96.624 749.256 96.624C749.784 96.624 750.256 96.56 750.672 96.432C751.104 96.288 751.6 96.088 752.16 95.832L753.072 98.088C752.528 98.504 751.864 98.808 751.08 99C750.312 99.192 749.68 99.288 749.184 99.288ZM750.888 92.016C750.728 91.232 750.44 90.656 750.024 90.288C749.608 89.904 749.088 89.712 748.464 89.712C747.824 89.712 747.288 89.912 746.856 90.312C746.424 90.696 746.144 91.264 746.016 92.016H750.888ZM756.766 95.496C757.262 95.496 757.67 95.664 757.99 96C758.326 96.336 758.494 96.752 758.494 97.248C758.494 97.744 758.326 98.16 757.99 98.496C757.67 98.832 757.262 99 756.766 99C756.27 99 755.846 98.832 755.494 98.496C755.158 98.16 754.99 97.744 754.99 97.248C754.99 96.752 755.158 96.336 755.494 96C755.846 95.664 756.27 95.496 756.766 95.496Z" fill="#363534"/>
</svg>
